<svg xmlns="http://www.w3.org/2000/svg" viewBox="0 0 400 280" role="img" aria-label="Loot the Loop preview">
  <defs>
    <linearGradient id="loot-bg" x1="0" y1="0" x2="1" y2="1">
      <stop offset="0%" stop-color="#fef3c7"/>
      <stop offset="100%" stop-color="#fdba74"/>
    </linearGradient>
  </defs>
  <rect width="400" height="280" fill="url(#loot-bg)"/>

  <g transform="translate(24 22)">
    <rect width="352" height="236" rx="14" fill="#0f172a" opacity="0.12"/>

    <g transform="translate(14 14)">
      <rect width="324" height="74" rx="12" fill="#ffffff" stroke="#cbd5e1"/>
      <text x="12" y="18" font-size="11" font-family="Arial, sans-serif" font-weight="700" fill="#64748b">TEMPLE LOOP (top rooms)</text>
      <g transform="translate(12 28)">
        <g font-family="Arial, sans-serif" font-size="16" font-weight="700" text-anchor="middle">
          <rect x="0" y="0" width="34" height="34" rx="7" fill="#dbeafe" stroke="#93c5fd"/><text x="17" y="23" fill="#0f172a">3</text>
          <rect x="38" y="0" width="34" height="34" rx="7" fill="#dbeafe" stroke="#93c5fd"/><text x="55" y="23" fill="#0f172a">6</text>
          <rect x="76" y="0" width="34" height="34" rx="7" fill="#fef3c7" stroke="#fcd34d"/><text x="93" y="23">💎</text>
          <rect x="114" y="0" width="34" height="34" rx="7" fill="#fee2e2" stroke="#fca5a5"/><text x="131" y="23">💀</text>
          <rect x="152" y="0" width="34" height="34" rx="7" fill="#e2e8f0" stroke="#94a3b8"/><text x="169" y="23">❓</text>
          <rect x="190" y="0" width="34" height="34" rx="7" fill="#e2e8f0" stroke="#94a3b8"/><text x="207" y="23">❓</text>
          <rect x="228" y="0" width="34" height="34" rx="7" fill="#dbeafe" stroke="#93c5fd"/><text x="245" y="23" fill="#0f172a">4</text>
          <rect x="266" y="0" width="34" height="34" rx="7" fill="#f1f5f9" stroke="#94a3b8"/><text x="283" y="23">🪨</text>
        </g>
      </g>

      <rect y="88" width="324" height="54" rx="12" fill="#ffffff" stroke="#cbd5e1"/>
      <text x="12" y="106" font-size="11" font-family="Arial, sans-serif" font-weight="700" fill="#64748b">ACTIONS</text>
      <g transform="translate(12 114)" font-family="Arial, sans-serif" font-size="11" font-weight="700" text-anchor="middle">
        <rect x="0" y="0" width="74" height="22" rx="6" fill="#2563eb"/><text x="37" y="15" fill="#fff">Look Around</text>
        <rect x="80" y="0" width="58" height="22" rx="6" fill="#1d4ed8"/><text x="109" y="15" fill="#fff">Explore 3</text>
        <rect x="144" y="0" width="64" height="22" rx="6" fill="#334155"/><text x="176" y="15" fill="#fff">Mark Path</text>
        <rect x="214" y="0" width="48" height="22" rx="6" fill="#0f172a"/><text x="238" y="15" fill="#fff">Return</text>
      </g>

      <rect y="146" width="324" height="64" rx="12" fill="#ffffff" stroke="#cbd5e1"/>
      <text x="12" y="164" font-size="11" font-family="Arial, sans-serif" font-weight="700" fill="#64748b">NOTES + LOOT</text>
      <g font-family="Arial, sans-serif" font-size="12" font-weight="700">
        <rect x="12" y="172" width="92" height="28" rx="8" fill="#f8fafc" stroke="#cbd5e1"/>
        <text x="20" y="190" fill="#0f172a">Return 5 / Return 2</text>

        <rect x="116" y="172" width="196" height="28" rx="8" fill="#fff7ed" stroke="#fdba74"/>
        <text x="126" y="190" fill="#9a3412">Jewels 2/4 · Looted 5 · Message: Explored 3 rooms.</text>
      </g>
    </g>
  </g>
</svg>
