<svg width="800" height="500" viewBox="0 0 800 500" fill="none" xmlns="http://www.w3.org/2000/svg">
  <rect width="800" height="500" rx="30" fill="#E8F1FF"/>
  <rect x="36" y="36" width="728" height="428" rx="22" fill="#FFFFFF" stroke="#93C5FD" stroke-width="4"/>
  <g transform="translate(78 92)">
    <rect width="330" height="330" rx="12" fill="#F8FAFC" stroke="#CBD5E1"/>
    <g stroke="#CBD5E1" stroke-width="1">
      <path d="M30 0V330M60 0V330M90 0V330M120 0V330M150 0V330M180 0V330M210 0V330M240 0V330M270 0V330M300 0V330"/>
      <path d="M0 30H330M0 60H330M0 90H330M0 120H330M0 150H330M0 180H330M0 210H330M0 240H330M0 270H330M0 300H330"/>
    </g>
    <rect x="0" y="0" width="30" height="30" fill="#86EFAC"/>
    <rect x="30" y="30" width="30" height="30" fill="#86EFAC"/>
    <rect x="60" y="60" width="30" height="30" fill="#86EFAC"/>
    <rect x="90" y="90" width="30" height="30" fill="#86EFAC"/>
  </g>
  <text x="445" y="150" fill="#0F172A" font-size="44" font-family="Arial" font-weight="700">Crossword</text>
  <text x="445" y="196" fill="#1E293B" font-size="30" font-family="Arial" font-weight="600">Puzzle Game</text>
  <rect x="444" y="236" width="245" height="48" rx="12" fill="#2563EB"/>
  <text x="567" y="268" text-anchor="middle" fill="white" font-size="22" font-family="Arial" font-weight="700">Solve</text>
  <rect x="444" y="300" width="245" height="48" rx="12" fill="#0F172A"/>
  <text x="567" y="332" text-anchor="middle" fill="white" font-size="22" font-family="Arial" font-weight="700">New Game</text>
</svg>
